<?xml version="1.0" standalone="no"?>
<!DOCTYPE svg PUBLIC "-//W3C//DTD SVG 20010904//EN"
 "http://www.w3.org/TR/2001/REC-SVG-20010904/DTD/svg10.dtd">
<svg version="1.0" xmlns="http://www.w3.org/2000/svg"
 width="1350.000000pt" height="1350.000000pt" viewBox="0 0 1350.000000 1350.000000"
 preserveAspectRatio="xMidYMid meet">

<g transform="translate(0.000000,1350.000000) scale(0.100000,-0.100000)"
fill="#000000" stroke="none">
<path d="M6440 13494 c-365 -24 -530 -42 -789 -84 -1243 -203 -2396 -750
-3361 -1593 -148 -129 -478 -459 -607 -607 -843 -965 -1390 -2118 -1593 -3361
-65 -401 -84 -652 -84 -1099 0 -447 19 -698 84 -1099 401 -2453 2146 -4506
4505 -5299 1125 -378 2332 -452 3505 -216 1145 231 2211 761 3110 1547 148
129 478 459 607 607 844 965 1390 2117 1593 3361 65 401 85 653 85 1099 0 446
-20 698 -85 1099 -382 2337 -1976 4309 -4192 5185 -593 234 -1213 379 -1888
441 -154 15 -765 27 -890 19z m970 -323 c818 -89 1527 -297 2250 -662 1840
-928 3123 -2678 3459 -4714 63 -384 75 -554 75 -1045 0 -396 -2 -468 -22 -655
-65 -594 -190 -1121 -389 -1640 -827 -2156 -2718 -3700 -4988 -4074 -384 -63
-554 -75 -1045 -75 -396 0 -468 2 -655 22 -1067 116 -2026 459 -2900 1036
-1189 786 -2087 1946 -2555 3301 -148 428 -257 928 -312 1430 -20 187 -22 259
-22 655 0 396 2 468 22 655 89 809 294 1516 643 2215 360 720 808 1319 1394
1864 1025 953 2344 1549 3731 1685 294 29 277 29 719 26 324 -3 437 -7 595
-24z"/>
<path d="M6335 12759 c-33 -4 -116 -13 -185 -19 -293 -26 -765 -111 -995 -181
-16 -5 -77 -23 -135 -40 -150 -44 -466 -154 -552 -192 -75 -33 -125 -55 -168
-73 -94 -40 -420 -205 -535 -271 -496 -287 -860 -567 -1271 -977 -491 -491
-836 -969 -1136 -1574 -94 -189 -108 -219 -154 -334 -14 -35 -33 -79 -41 -98
-21 -49 -28 -67 -51 -130 -11 -30 -28 -75 -37 -100 -29 -76 -86 -258 -115
-360 -42 -152 -61 -226 -80 -315 -5 -22 -13 -60 -19 -85 -26 -114 -53 -271
-80 -465 -6 -38 -15 -126 -21 -195 -6 -69 -15 -161 -20 -206 -13 -104 -13
-664 0 -768 5 -45 14 -137 20 -206 10 -116 15 -153 41 -330 17 -113 39 -234
59 -325 40 -181 53 -235 100 -405 29 -102 86 -284 115 -360 9 -25 26 -70 37
-100 30 -83 40 -107 71 -180 8 -19 22 -53 32 -75 38 -93 54 -129 141 -305 214
-432 461 -809 790 -1205 138 -166 540 -569 712 -713 215 -181 502 -390 718
-523 204 -125 560 -314 724 -383 43 -18 93 -40 168 -73 86 -38 402 -148 552
-192 58 -17 119 -35 135 -40 231 -70 704 -156 995 -181 69 -6 159 -15 200 -20
97 -13 683 -13 780 0 41 5 131 14 200 20 291 25 762 111 995 181 17 5 64 18
105 30 115 33 380 122 445 149 11 4 47 18 80 31 33 12 87 34 120 49 33 15 80
35 105 46 166 70 521 258 724 383 216 133 505 343 716 521 174 146 576 548
714 715 329 396 576 773 790 1205 87 176 103 212 141 305 10 22 24 56 32 75 8
19 19 45 24 58 5 12 13 32 18 45 5 12 18 47 29 77 11 30 28 75 37 100 27 72
80 236 105 325 61 219 70 254 91 350 39 180 61 298 79 425 6 41 15 102 20 135
5 33 14 116 20 185 6 69 15 161 20 206 13 104 13 664 0 768 -5 45 -14 137 -20
206 -6 69 -15 157 -21 195 -26 187 -53 342 -79 460 -40 181 -53 235 -100 405
-29 102 -86 284 -115 360 -9 25 -26 70 -37 100 -23 63 -30 81 -51 130 -8 19
-27 63 -41 98 -45 113 -60 144 -152 332 -214 432 -461 809 -790 1205 -135 162
-538 567 -704 707 -219 184 -509 395 -726 529 -204 125 -560 314 -724 383 -43
18 -93 40 -168 73 -86 38 -402 148 -552 192 -58 17 -118 35 -135 40 -231 70
-704 156 -995 181 -69 6 -159 15 -200 20 -88 12 -708 11 -795 -1z m3305 -3504
c63 -8 124 -17 135 -19 11 -3 52 -12 90 -21 93 -22 229 -67 299 -99 31 -14 59
-26 61 -26 2 0 30 -12 62 -26 226 -104 328 -110 412 -26 41 41 111 162 111
191 0 6 5 11 10 11 7 0 9 -261 8 -777 l-3 -778 -38 -3 c-46 -4 -63 9 -72 51
-23 108 -100 321 -175 482 -106 226 -234 412 -394 570 -238 235 -484 346 -769
345 -135 -1 -206 -16 -313 -69 -251 -124 -416 -427 -413 -760 0 -75 8 -132 34
-256 12 -54 103 -228 155 -297 153 -201 367 -367 890 -688 576 -354 820 -557
1007 -840 218 -327 274 -761 149 -1135 -107 -318 -368 -578 -721 -719 -63 -25
-89 -34 -190 -65 -131 -41 -370 -71 -571 -71 -216 0 -357 20 -674 96 -80 19
-172 41 -205 49 -33 7 -85 19 -115 27 -34 8 -117 13 -220 12 -171 0 -217 -9
-250 -48 -7 -9 -16 -16 -21 -16 -5 0 -9 314 -9 720 0 658 1 721 16 727 29 11
48 -13 71 -88 83 -285 246 -595 431 -822 129 -157 324 -319 487 -404 71 -37
194 -80 285 -99 118 -25 314 -15 415 21 250 89 447 313 515 583 24 92 27 262
6 339 -71 267 -284 471 -886 850 -470 295 -634 410 -827 583 -293 259 -475
555 -542 875 -51 247 -25 554 69 791 154 389 499 677 943 788 57 14 145 32
197 40 130 19 409 19 550 1z m-4810 -70 c470 -3 1135 -8 1476 -12 l622 -6 6
-76 c4 -42 11 -173 16 -291 6 -118 15 -300 20 -405 22 -417 23 -502 11 -509
-24 -15 -47 5 -60 51 -70 249 -185 504 -312 695 -84 127 -241 281 -336 331
-137 72 -122 70 -608 76 -242 3 -443 3 -448 0 -4 -3 -6 -934 -5 -2070 3 -1936
4 -2068 21 -2122 54 -181 154 -292 322 -358 17 -6 66 -17 109 -23 83 -12 105
-27 92 -61 -6 -17 -49 -18 -972 -12 -531 4 -970 9 -975 12 -5 4 -9 19 -9 36 0
27 2 29 39 29 63 0 181 28 247 59 105 49 179 130 222 241 43 113 45 148 38
650 -3 261 -10 988 -16 1615 -5 627 -12 1203 -15 1280 -2 77 -4 274 -5 438 l0
297 -398 0 c-376 0 -402 -1 -463 -21 -210 -68 -402 -266 -556 -576 -74 -148
-108 -232 -164 -405 -43 -136 -44 -138 -73 -138 l-29 0 7 148 c4 81 11 255 16
387 5 132 14 352 20 488 5 137 12 253 16 258 4 7 219 9 648 5 352 -3 1026 -8
1496 -11z"/>
</g>
</svg>
